<mxfile host="app.diagrams.net" modified="2023-10-20T19:45:29.642Z" agent="Mozilla/5.0 (Windows NT 10.0; Win64; x64) AppleWebKit/537.36 (KHTML, like Gecko) Chrome/118.0.0.0 Safari/537.36 Edg/118.0.2088.57" version="22.0.6" etag="-VbzePJ8jiaO-K-FchkT" type="github">
  <diagram name="PÃ¡gina-1" id="St_YJH2wPT3yigmZhr5Z">
    <mxGraphModel>
      <root>
        <mxCell id="0" />
        <mxCell id="1" parent="0" />
      </root>
    </mxGraphModel>
  </diagram>
</mxfile>
